<mxfile host="app.diagrams.net" agent="Mozilla/5.0 (Windows NT 10.0; Win64; x64) AppleWebKit/537.36 (KHTML, like Gecko) Chrome/133.0.0.0 Safari/537.36" version="26.0.16" pages="4">
  <diagram name="Página-1" id="IgvxIUKOdiv-PeFPPHaC">
    <mxGraphModel dx="1434" dy="738" grid="1" gridSize="10" guides="1" tooltips="1" connect="1" arrows="1" fold="1" page="1" pageScale="1" pageWidth="827" pageHeight="1169" math="0" shadow="0">
      <root>
        <mxCell id="0" />
        <mxCell id="1" parent="0" />
        <mxCell id="4l5uVfgSdB4uUqbZ3SVG-16" style="edgeStyle=orthogonalEdgeStyle;rounded=0;orthogonalLoop=1;jettySize=auto;html=1;" edge="1" parent="1" source="4l5uVfgSdB4uUqbZ3SVG-8">
          <mxGeometry relative="1" as="geometry">
            <mxPoint x="580" y="160" as="targetPoint" />
            <mxPoint x="270" y="230" as="sourcePoint" />
            <Array as="points">
              <mxPoint x="443" y="320" />
              <mxPoint x="443" y="231" />
              <mxPoint x="530" y="231" />
              <mxPoint x="530" y="160" />
            </Array>
          </mxGeometry>
        </mxCell>
        <mxCell id="4l5uVfgSdB4uUqbZ3SVG-18" style="edgeStyle=orthogonalEdgeStyle;rounded=0;orthogonalLoop=1;jettySize=auto;html=1;exitX=1;exitY=1;exitDx=0;exitDy=0;exitPerimeter=0;" edge="1" parent="1" source="4l5uVfgSdB4uUqbZ3SVG-8">
          <mxGeometry relative="1" as="geometry">
            <mxPoint x="550" y="470" as="targetPoint" />
            <Array as="points">
              <mxPoint x="270" y="480" />
              <mxPoint x="390" y="480" />
              <mxPoint x="390" y="450" />
              <mxPoint x="511" y="450" />
            </Array>
          </mxGeometry>
        </mxCell>
        <mxCell id="4l5uVfgSdB4uUqbZ3SVG-8" value="recepcionista" style="shape=umlActor;verticalLabelPosition=bottom;verticalAlign=top;html=1;outlineConnect=0;" vertex="1" parent="1">
          <mxGeometry x="20" y="180" width="150" height="210" as="geometry" />
        </mxCell>
        <mxCell id="4l5uVfgSdB4uUqbZ3SVG-9" value="Confirmar reserva" style="ellipse;whiteSpace=wrap;html=1;" vertex="1" parent="1">
          <mxGeometry x="600" y="50" width="200" height="160" as="geometry" />
        </mxCell>
        <mxCell id="4l5uVfgSdB4uUqbZ3SVG-17" value="Gerenciar disponibilidade de quartos" style="ellipse;whiteSpace=wrap;html=1;" vertex="1" parent="1">
          <mxGeometry x="595" y="400" width="210" height="160" as="geometry" />
        </mxCell>
        <mxCell id="4l5uVfgSdB4uUqbZ3SVG-19" style="edgeStyle=orthogonalEdgeStyle;rounded=0;orthogonalLoop=1;jettySize=auto;html=1;exitX=1;exitY=1;exitDx=0;exitDy=0;exitPerimeter=0;" edge="1" parent="1" source="4l5uVfgSdB4uUqbZ3SVG-8" target="4l5uVfgSdB4uUqbZ3SVG-8">
          <mxGeometry relative="1" as="geometry" />
        </mxCell>
      </root>
    </mxGraphModel>
  </diagram>
  <diagram id="xDdpUqh93twgKUmwfu8b" name="Página-2">
    <mxGraphModel dx="1434" dy="738" grid="1" gridSize="10" guides="1" tooltips="1" connect="1" arrows="1" fold="1" page="1" pageScale="1" pageWidth="827" pageHeight="1169" math="0" shadow="0">
      <root>
        <mxCell id="0" />
        <mxCell id="1" parent="0" />
        <mxCell id="kGH521ULEWFL3bbT8Ffv-3" style="edgeStyle=orthogonalEdgeStyle;rounded=0;orthogonalLoop=1;jettySize=auto;html=1;exitX=0;exitY=0.3333333333333333;exitDx=0;exitDy=0;exitPerimeter=0;" edge="1" parent="1" source="kGH521ULEWFL3bbT8Ffv-2" target="kGH521ULEWFL3bbT8Ffv-4">
          <mxGeometry relative="1" as="geometry">
            <mxPoint x="260" y="280" as="targetPoint" />
          </mxGeometry>
        </mxCell>
        <mxCell id="kGH521ULEWFL3bbT8Ffv-5" style="edgeStyle=orthogonalEdgeStyle;rounded=0;orthogonalLoop=1;jettySize=auto;html=1;exitX=1;exitY=0.3333333333333333;exitDx=0;exitDy=0;exitPerimeter=0;" edge="1" parent="1" source="kGH521ULEWFL3bbT8Ffv-2">
          <mxGeometry relative="1" as="geometry">
            <mxPoint x="640" y="340" as="targetPoint" />
          </mxGeometry>
        </mxCell>
        <mxCell id="kGH521ULEWFL3bbT8Ffv-2" value="cliente" style="shape=umlActor;verticalLabelPosition=bottom;verticalAlign=top;html=1;outlineConnect=0;" vertex="1" parent="1">
          <mxGeometry x="380" y="330" width="140" height="270" as="geometry" />
        </mxCell>
        <mxCell id="kGH521ULEWFL3bbT8Ffv-4" value="fazer reserva" style="ellipse;whiteSpace=wrap;html=1;" vertex="1" parent="1">
          <mxGeometry x="200" y="240" width="120" height="80" as="geometry" />
        </mxCell>
        <mxCell id="kGH521ULEWFL3bbT8Ffv-6" value="cancelar reserva&lt;div&gt;&lt;br&gt;&lt;/div&gt;" style="ellipse;whiteSpace=wrap;html=1;" vertex="1" parent="1">
          <mxGeometry x="650" y="290" width="120" height="80" as="geometry" />
        </mxCell>
      </root>
    </mxGraphModel>
  </diagram>
  <diagram id="bkxvQY9ESXTs4ThlV5ij" name="Página-3">
    <mxGraphModel dx="1415" dy="738" grid="1" gridSize="10" guides="1" tooltips="1" connect="1" arrows="1" fold="1" page="1" pageScale="1" pageWidth="827" pageHeight="1169" math="0" shadow="0">
      <root>
        <mxCell id="0" />
        <mxCell id="1" parent="0" />
        <mxCell id="3B5D5Wpmqf4HDPKse1Ly-1" value="cliente" style="shape=umlActor;verticalLabelPosition=bottom;verticalAlign=top;html=1;outlineConnect=0;" vertex="1" parent="1">
          <mxGeometry x="40" y="300" width="30" height="60" as="geometry" />
        </mxCell>
        <mxCell id="3B5D5Wpmqf4HDPKse1Ly-2" value="" style="endArrow=none;html=1;rounded=0;entryX=0.025;entryY=0.65;entryDx=0;entryDy=0;entryPerimeter=0;" edge="1" parent="1" target="3B5D5Wpmqf4HDPKse1Ly-3">
          <mxGeometry width="50" height="50" relative="1" as="geometry">
            <mxPoint x="80" y="290" as="sourcePoint" />
            <mxPoint x="200" y="170" as="targetPoint" />
            <Array as="points" />
          </mxGeometry>
        </mxCell>
        <mxCell id="3B5D5Wpmqf4HDPKse1Ly-3" value="navegar pelo catalogo" style="ellipse;whiteSpace=wrap;html=1;fillColor=#fff2cc;strokeColor=#d6b656;" vertex="1" parent="1">
          <mxGeometry x="210" y="120" width="120" height="80" as="geometry" />
        </mxCell>
        <mxCell id="3B5D5Wpmqf4HDPKse1Ly-4" value="" style="endArrow=none;html=1;rounded=0;" edge="1" parent="1">
          <mxGeometry width="50" height="50" relative="1" as="geometry">
            <mxPoint x="90" y="310" as="sourcePoint" />
            <mxPoint x="230" y="260" as="targetPoint" />
          </mxGeometry>
        </mxCell>
        <mxCell id="3B5D5Wpmqf4HDPKse1Ly-5" value="colocar item no carrinho" style="ellipse;whiteSpace=wrap;html=1;fillColor=#fff2cc;strokeColor=#d6b656;" vertex="1" parent="1">
          <mxGeometry x="230" y="210" width="120" height="80" as="geometry" />
        </mxCell>
        <mxCell id="3B5D5Wpmqf4HDPKse1Ly-6" value="" style="endArrow=none;html=1;rounded=0;" edge="1" parent="1" target="3B5D5Wpmqf4HDPKse1Ly-7">
          <mxGeometry width="50" height="50" relative="1" as="geometry">
            <mxPoint x="90" y="370" as="sourcePoint" />
            <mxPoint x="170" y="480" as="targetPoint" />
            <Array as="points">
              <mxPoint x="140" y="410" />
            </Array>
          </mxGeometry>
        </mxCell>
        <mxCell id="3B5D5Wpmqf4HDPKse1Ly-7" value="finalizar compra" style="ellipse;whiteSpace=wrap;html=1;fillColor=#fff2cc;strokeColor=#d6b656;" vertex="1" parent="1">
          <mxGeometry x="150" y="450" width="120" height="80" as="geometry" />
        </mxCell>
        <mxCell id="3B5D5Wpmqf4HDPKse1Ly-8" value="informar endereço" style="ellipse;whiteSpace=wrap;html=1;fillColor=#fff2cc;strokeColor=#d6b656;" vertex="1" parent="1">
          <mxGeometry x="190" y="330" width="120" height="80" as="geometry" />
        </mxCell>
        <mxCell id="3B5D5Wpmqf4HDPKse1Ly-9" value="" style="endArrow=none;html=1;rounded=0;exitX=0.583;exitY=0;exitDx=0;exitDy=0;exitPerimeter=0;entryX=0.375;entryY=1.025;entryDx=0;entryDy=0;entryPerimeter=0;" edge="1" parent="1" source="3B5D5Wpmqf4HDPKse1Ly-7" target="3B5D5Wpmqf4HDPKse1Ly-8">
          <mxGeometry width="50" height="50" relative="1" as="geometry">
            <mxPoint x="230" y="460" as="sourcePoint" />
            <mxPoint x="230" y="400" as="targetPoint" />
          </mxGeometry>
        </mxCell>
        <mxCell id="3B5D5Wpmqf4HDPKse1Ly-12" value="" style="endArrow=none;html=1;rounded=0;entryX=0.075;entryY=0.74;entryDx=0;entryDy=0;entryPerimeter=0;exitX=0.975;exitY=0.238;exitDx=0;exitDy=0;exitPerimeter=0;" edge="1" parent="1" source="3B5D5Wpmqf4HDPKse1Ly-7" target="3B5D5Wpmqf4HDPKse1Ly-10">
          <mxGeometry width="50" height="50" relative="1" as="geometry">
            <mxPoint x="270" y="480" as="sourcePoint" />
            <mxPoint x="390" y="390" as="targetPoint" />
          </mxGeometry>
        </mxCell>
        <mxCell id="3B5D5Wpmqf4HDPKse1Ly-13" value="Comprar produto" style="text;html=1;align=center;verticalAlign=middle;resizable=0;points=[];autosize=1;strokeColor=none;fillColor=none;" vertex="1" parent="1">
          <mxGeometry x="430" y="18" width="110" height="30" as="geometry" />
        </mxCell>
        <mxCell id="3B5D5Wpmqf4HDPKse1Ly-17" value="verificar dados&lt;div&gt;do cartão de&amp;nbsp;&lt;/div&gt;&lt;div&gt;crédito&lt;/div&gt;" style="ellipse;whiteSpace=wrap;html=1;fillColor=#fff2cc;strokeColor=#d6b656;" vertex="1" parent="1">
          <mxGeometry x="600" y="330" width="120" height="80" as="geometry" />
        </mxCell>
        <mxCell id="3B5D5Wpmqf4HDPKse1Ly-18" value="" style="endArrow=none;html=1;rounded=0;" edge="1" parent="1" source="3B5D5Wpmqf4HDPKse1Ly-10">
          <mxGeometry width="50" height="50" relative="1" as="geometry">
            <mxPoint x="390" y="410" as="sourcePoint" />
            <mxPoint x="440" y="360" as="targetPoint" />
          </mxGeometry>
        </mxCell>
        <mxCell id="3B5D5Wpmqf4HDPKse1Ly-10" value="preencher&lt;div&gt;dados&lt;/div&gt;&lt;div&gt;do cartão de&lt;/div&gt;&lt;div&gt;crédito&lt;/div&gt;" style="ellipse;whiteSpace=wrap;html=1;fillColor=#fff2cc;strokeColor=#d6b656;" vertex="1" parent="1">
          <mxGeometry x="370" y="310" width="120" height="100" as="geometry" />
        </mxCell>
        <mxCell id="3B5D5Wpmqf4HDPKse1Ly-21" value="" style="endArrow=none;html=1;rounded=0;exitX=0.992;exitY=0.4;exitDx=0;exitDy=0;exitPerimeter=0;" edge="1" parent="1" source="3B5D5Wpmqf4HDPKse1Ly-10" target="3B5D5Wpmqf4HDPKse1Ly-17">
          <mxGeometry width="50" height="50" relative="1" as="geometry">
            <mxPoint x="490" y="360" as="sourcePoint" />
            <mxPoint x="540" y="310" as="targetPoint" />
          </mxGeometry>
        </mxCell>
        <mxCell id="3B5D5Wpmqf4HDPKse1Ly-22" value="" style="endArrow=none;html=1;rounded=0;exitX=0.933;exitY=0.788;exitDx=0;exitDy=0;exitPerimeter=0;" edge="1" parent="1" source="3B5D5Wpmqf4HDPKse1Ly-17" target="3B5D5Wpmqf4HDPKse1Ly-23">
          <mxGeometry width="50" height="50" relative="1" as="geometry">
            <mxPoint x="710" y="395" as="sourcePoint" />
            <mxPoint x="810" y="430" as="targetPoint" />
          </mxGeometry>
        </mxCell>
        <mxCell id="3B5D5Wpmqf4HDPKse1Ly-23" value="sistema" style="shape=umlActor;verticalLabelPosition=bottom;verticalAlign=top;html=1;outlineConnect=0;" vertex="1" parent="1">
          <mxGeometry x="795" y="400" width="30" height="60" as="geometry" />
        </mxCell>
        <mxCell id="3B5D5Wpmqf4HDPKse1Ly-24" value="" style="endArrow=none;html=1;rounded=0;" edge="1" parent="1" target="3B5D5Wpmqf4HDPKse1Ly-25">
          <mxGeometry width="50" height="50" relative="1" as="geometry">
            <mxPoint x="270" y="500" as="sourcePoint" />
            <mxPoint x="530" y="500" as="targetPoint" />
          </mxGeometry>
        </mxCell>
        <mxCell id="3B5D5Wpmqf4HDPKse1Ly-25" value="faturar compra" style="ellipse;whiteSpace=wrap;html=1;fillColor=#fff2cc;strokeColor=#d6b656;" vertex="1" parent="1">
          <mxGeometry x="470" y="460" width="120" height="80" as="geometry" />
        </mxCell>
        <mxCell id="3B5D5Wpmqf4HDPKse1Ly-26" value="" style="endArrow=none;html=1;rounded=0;exitX=1;exitY=0.5;exitDx=0;exitDy=0;" edge="1" parent="1" source="3B5D5Wpmqf4HDPKse1Ly-25">
          <mxGeometry width="50" height="50" relative="1" as="geometry">
            <mxPoint x="590" y="515" as="sourcePoint" />
            <mxPoint x="750" y="460" as="targetPoint" />
          </mxGeometry>
        </mxCell>
        <mxCell id="3B5D5Wpmqf4HDPKse1Ly-28" value="enviar e-mail" style="ellipse;whiteSpace=wrap;html=1;fillColor=#fff2cc;strokeColor=#d6b656;" vertex="1" parent="1">
          <mxGeometry x="580" y="570" width="130" height="70" as="geometry" />
        </mxCell>
        <mxCell id="3B5D5Wpmqf4HDPKse1Ly-30" value="" style="endArrow=none;html=1;rounded=0;" edge="1" parent="1">
          <mxGeometry width="50" height="50" relative="1" as="geometry">
            <mxPoint x="690" y="580" as="sourcePoint" />
            <mxPoint x="760" y="510" as="targetPoint" />
          </mxGeometry>
        </mxCell>
      </root>
    </mxGraphModel>
  </diagram>
  <diagram id="6jm5-QjYk58c6paqTfCQ" name="Página-4">
    <mxGraphModel dx="1415" dy="738" grid="1" gridSize="10" guides="1" tooltips="1" connect="1" arrows="1" fold="1" page="1" pageScale="1" pageWidth="827" pageHeight="1169" math="0" shadow="0">
      <root>
        <mxCell id="0" />
        <mxCell id="1" parent="0" />
        <mxCell id="kIoDhcCSQp4i9TTa5lfC-1" value="Actor" style="shape=umlActor;verticalLabelPosition=bottom;verticalAlign=top;html=1;outlineConnect=0;" vertex="1" parent="1">
          <mxGeometry x="80" y="310" width="30" height="60" as="geometry" />
        </mxCell>
        <mxCell id="kIoDhcCSQp4i9TTa5lfC-2" value="" style="swimlane;startSize=0;" vertex="1" parent="1">
          <mxGeometry x="190" y="60" width="430" height="680" as="geometry" />
        </mxCell>
      </root>
    </mxGraphModel>
  </diagram>
</mxfile>
